<?xml version="1.0" encoding="UTF-8" standalone="no"?>
<svg
   xmlns:dc="http://purl.org/dc/elements/1.1/"
   xmlns:cc="http://creativecommons.org/ns#"
   xmlns:rdf="http://www.w3.org/1999/02/22-rdf-syntax-ns#"
   xmlns:svg="http://www.w3.org/2000/svg"
   xmlns="http://www.w3.org/2000/svg"
   xmlns:sodipodi="http://sodipodi.sourceforge.net/DTD/sodipodi-0.dtd"
   xmlns:inkscape="http://www.inkscape.org/namespaces/inkscape"
   width="283.16098mm"
   height="276.23633mm"
   viewBox="0 0 283.16098 276.23633"
   version="1.1"
   id="svg70"
   inkscape:version="1.0.2-2 (e86c870879, 2021-01-15)"
   sodipodi:docname="github.svg">
  <defs
     id="defs64" />
  <sodipodi:namedview
     id="base"
     pagecolor="#ffffff"
     bordercolor="#666666"
     borderopacity="1.0"
     inkscape:pageopacity="0.0"
     inkscape:pageshadow="2"
     inkscape:zoom="0.35"
     inkscape:cx="1140.819"
     inkscape:cy="446.72597"
     inkscape:document-units="mm"
     inkscape:current-layer="layer1"
     inkscape:document-rotation="0"
     showgrid="false"
     inkscape:window-width="1624"
     inkscape:window-height="1034"
     inkscape:window-x="190"
     inkscape:window-y="0"
     inkscape:window-maximized="0" />
  <metadata
     id="metadata67">
    <rdf:RDF>
      <cc:Work
         rdf:about="">
        <dc:format>image/svg+xml</dc:format>
        <dc:type
           rdf:resource="http://purl.org/dc/dcmitype/StillImage" />
        <dc:title></dc:title>
      </cc:Work>
    </rdf:RDF>
  </metadata>
  <g
     inkscape:label="Layer 1"
     inkscape:groupmode="layer"
     id="layer1"
     transform="translate(196.00836,-29.970419)">
    <path
       style="fill:#999999;stroke-width:0.138345"
       d="m -98.491488,306.11451 c -1.07803,-0.14308 -7.119182,-2.36032 -11.360752,-4.16967 -25.52868,-10.88991 -47.17513,-28.85764 -62.56097,-51.929 -12.95481,-19.426 -20.91772,-41.9502 -23.05092,-65.20269 -0.44449,-4.84516 -0.5513,-7.49418 -0.54387,-13.48866 0.009,-7.5542 0.31522,-12.24737 1.23519,-18.95329 4.22626,-30.80641 18.1913,-58.925666 40.18996,-80.924326 20.00462,-20.00461 45.29248,-33.48545 72.900302,-38.86278 20.72165,-4.03608 42.68329,-3.38458 62.80872,1.86323 33.77168,8.80613 62.83355,29.4777 82.25083,58.50463 12.29236,18.375866 20.00578,39.063786 22.74742,61.010216 0.77732,6.22233 1.03619,10.68145 1.02802,17.70818 -0.009,7.9425 -0.44578,14.01901 -1.51563,21.09764 -5.08771,33.66288 -21.99446,64.16538 -47.93214,86.47734 -11.64569,10.01778 -25.2288,18.27473 -39.3545201,23.92293 -3.34828,1.3388 -7.29495,2.75306 -8.11889,2.90931 -1.0592099,0.20088 -3.2686699,0.16112 -4.1756999,-0.0751 -2.56443,-0.66795 -4.30919,-2.4911 -4.84461,-5.06229 -0.15836,-0.76047 -0.17787,-4.43709 -0.11682,-22.00318 0.0554,-15.93985 0.0321,-21.5785 -0.0953,-23.08986 -0.72796,-8.63363 -3.46844,-15.63406 -7.94101,-20.28495 l -1.35861,-1.41277 0.45936,-0.0725 c 0.25265,-0.0399 1.70447,-0.23616 3.22627,-0.43615 27.3024599,-3.58826 44.44729,-13.96057 53.49335,-32.36255 4.09947,-8.33937 6.42126,-18.05958 7.17079,-30.02054 0.21088,-3.36516 0.17349,-10.30991 -0.0693,-12.88083 -1.0939,-11.58113 -5.29009,-21.64974 -12.72556,-30.53453 l -1.48219,-1.77109 0.56605,-1.70219 c 0.89806,-2.70056 1.5031,-5.47134 1.98154,-9.07435 0.10876,-0.81911 0.1732,-2.90404 0.17105,-5.5338 -0.003,-3.55379 -0.0512,-4.57098 -0.30587,-6.44704 -0.5816,-4.284356 -1.49021,-8.106606 -2.86498,-12.052086 -0.97833,-2.80779 -0.94896,-2.75376 -1.55451,-2.8595 -1.19703,-0.20901 -3.39705,-0.25135 -4.95482,-0.0954 -8.4629801,0.8475 -19.2720501,5.43223 -31.09747,13.190166 l -2.32451,1.52498 -3.41681,-0.8451 c -11.40797,-2.821636 -22.42267,-4.062796 -34.1986,-3.853566 -10.83102,0.19244 -19.98997,1.38094 -30.1425,3.911396 l -3.15385,0.78608 -0.95625,-0.62301 c -2.76053,-1.79852 -3.91924,-2.525676 -5.93668,-3.725616 -12.747582,-7.58204 -24.059572,-11.27644 -31.434702,-10.26631 l -0.58372,0.08 -0.43597,1.12628 c -1.66885,4.31131 -2.88862,9.23245 -3.53677,14.269066 -0.34445,2.67667 -0.34462,9.30135 -2.8e-4,11.89768 0.43355,3.26908 1.02477,5.89191 1.98952,8.82598 l 0.49113,1.49369 -0.43468,0.51232 c -6.36411,7.50068 -9.96772,14.23336 -12.19597,22.78589 -1.25159,4.8039 -1.66509,8.10341 -1.75812,14.02908 -0.31807,20.25926 4.46553,36.81217 13.93995,48.23703 9.64932,11.63577 24.06803,18.63477 44.681382,21.68879 1.7881,0.26493 3.62463,0.52053 4.08117,0.56801 1.75043,0.18206 1.70724,0.11699 0.72278,1.08883 -3.79974,3.75099 -6.5616,9.48515 -7.7654,16.12248 -0.18444,1.01695 -0.38733,1.89519 -0.45086,1.95165 -0.42643,0.37898 -4.75207,1.89595 -7.10194,2.49059 -3.48206,0.88113 -4.719502,1.02807 -8.715752,1.03485 -3.84009,0.006 -4.51934,-0.0604 -7.07532,-0.69661 -3.94368,-0.98166 -7.49161,-2.8131 -10.7712,-5.56008 -2.42267,-2.02922 -4.33929,-4.25158 -6.47032,-7.50245 -2.15494,-3.28733 -2.3729,-3.59638 -3.73297,-5.29283 -5.87135,-7.32349 -12.97875,-11.13109 -19.95596,-10.69089 -3.70857,0.23397 -5.53381,1.10567 -5.53381,2.64282 0,0.96481 0.5588,1.89767 1.98943,3.32114 1.18509,1.17917 2.2819,1.97805 5.20922,3.79423 3.54895,2.20186 8.76419,9.11619 12.52189,16.60142 0.55387,1.10331 1.26667,2.65969 1.584,3.45863 1.56044,3.92878 3.36543,6.71875 6.04653,9.34608 4.71215,4.61764 11.26118,7.3045 20.10133,8.24691 2.3855,0.25432 9.11359,0.21408 12.036032,-0.072 2.18278,-0.21365 7.21733,-0.89941 8.65872,-1.17942 l 0.56553,-0.10985 0.0915,8.38178 c 0.14968,13.71423 0.1204,19.05267 -0.10924,19.91544 -0.67086,2.52051 -2.50843,4.23772 -5.12532,4.78958 -0.89665,0.18909 -2.61491,0.24282 -3.59698,0.11249 z"
       id="path90" />
  </g>
</svg>
